<mxfile host="65bd71144e">
    <diagram id="6c8epJmjmZ5jBqBOt03x" name="Page-1">
        <mxGraphModel dx="2079" dy="433" grid="1" gridSize="10" guides="1" tooltips="1" connect="1" arrows="1" fold="1" page="1" pageScale="1" pageWidth="1100" pageHeight="850" math="0" shadow="0">
            <root>
                <mxCell id="0"/>
                <mxCell id="1" parent="0"/>
                <mxCell id="2" value="Mediator Design Pattern" style="text;html=1;align=center;verticalAlign=middle;resizable=1;points=[];autosize=1;strokeColor=#C73500;fillColor=#fa6800;fontColor=#000000;fontSize=25;movable=1;rotatable=1;deletable=1;editable=1;connectable=1;" parent="1" vertex="1">
                    <mxGeometry x="-1060" y="40" width="290" height="40" as="geometry"/>
                </mxCell>
                <mxCell id="3" value="&lt;span style=&quot;font-size: 14px;&quot;&gt;Define an object that encapsulates how a set of objects interact. Mediator promotes loose coupling by keeping objects from referring to reach other explicitly, and it lets you vary their interaction independently&lt;br&gt;&lt;/span&gt;" style="shape=note2;boundedLbl=1;whiteSpace=wrap;html=1;size=25;verticalAlign=top;align=left;movable=1;resizable=1;rotatable=1;deletable=1;editable=1;connectable=1;" parent="1" vertex="1">
                    <mxGeometry x="-730" y="40" width="690" height="70" as="geometry"/>
                </mxCell>
                <mxCell id="370" style="edgeStyle=none;html=1;entryX=0;entryY=0.5;entryDx=0;entryDy=0;" parent="1" source="368" target="369" edge="1">
                    <mxGeometry relative="1" as="geometry"/>
                </mxCell>
                <mxCell id="368" value="A" style="whiteSpace=wrap;html=1;" parent="1" vertex="1">
                    <mxGeometry x="-920" y="710" width="120" height="60" as="geometry"/>
                </mxCell>
                <mxCell id="369" value="B" style="whiteSpace=wrap;html=1;" parent="1" vertex="1">
                    <mxGeometry x="-700" y="710" width="120" height="60" as="geometry"/>
                </mxCell>
                <mxCell id="428" value="" style="group" parent="1" vertex="1" connectable="0">
                    <mxGeometry x="-970" y="910" width="500" height="300" as="geometry"/>
                </mxCell>
                <mxCell id="371" value="A" style="whiteSpace=wrap;html=1;" parent="428" vertex="1">
                    <mxGeometry width="120" height="60" as="geometry"/>
                </mxCell>
                <mxCell id="386" style="edgeStyle=none;html=1;entryX=1;entryY=0.25;entryDx=0;entryDy=0;" parent="428" source="372" target="371" edge="1">
                    <mxGeometry relative="1" as="geometry"/>
                </mxCell>
                <mxCell id="372" value="B" style="whiteSpace=wrap;html=1;" parent="428" vertex="1">
                    <mxGeometry x="380" width="120" height="60" as="geometry"/>
                </mxCell>
                <mxCell id="377" style="edgeStyle=none;html=1;" parent="428" source="371" target="372" edge="1">
                    <mxGeometry relative="1" as="geometry"/>
                </mxCell>
                <mxCell id="380" style="edgeStyle=none;html=1;entryX=0;entryY=0.5;entryDx=0;entryDy=0;" parent="428" source="373" target="372" edge="1">
                    <mxGeometry relative="1" as="geometry"/>
                </mxCell>
                <mxCell id="373" value="C" style="whiteSpace=wrap;html=1;" parent="428" vertex="1">
                    <mxGeometry y="120" width="120" height="60" as="geometry"/>
                </mxCell>
                <mxCell id="387" style="edgeStyle=none;html=1;entryX=1;entryY=0.25;entryDx=0;entryDy=0;" parent="428" source="372" target="373" edge="1">
                    <mxGeometry relative="1" as="geometry"/>
                </mxCell>
                <mxCell id="391" style="edgeStyle=none;html=1;entryX=1.006;entryY=0.655;entryDx=0;entryDy=0;entryPerimeter=0;" parent="428" source="374" target="373" edge="1">
                    <mxGeometry relative="1" as="geometry">
                        <mxPoint x="130" y="160" as="targetPoint"/>
                    </mxGeometry>
                </mxCell>
                <mxCell id="392" style="edgeStyle=none;html=1;entryX=1;entryY=0.75;entryDx=0;entryDy=0;" parent="428" source="374" target="371" edge="1">
                    <mxGeometry relative="1" as="geometry"/>
                </mxCell>
                <mxCell id="374" value="D" style="whiteSpace=wrap;html=1;" parent="428" vertex="1">
                    <mxGeometry x="380" y="120" width="120" height="60" as="geometry"/>
                </mxCell>
                <mxCell id="378" style="edgeStyle=none;html=1;entryX=0;entryY=0.5;entryDx=0;entryDy=0;" parent="428" source="371" target="374" edge="1">
                    <mxGeometry relative="1" as="geometry"/>
                </mxCell>
                <mxCell id="381" style="edgeStyle=none;html=1;entryX=0;entryY=0.5;entryDx=0;entryDy=0;" parent="428" source="373" target="374" edge="1">
                    <mxGeometry relative="1" as="geometry"/>
                </mxCell>
                <mxCell id="383" style="edgeStyle=none;html=1;entryX=0;entryY=0.5;entryDx=0;entryDy=0;" parent="428" source="375" target="372" edge="1">
                    <mxGeometry relative="1" as="geometry"/>
                </mxCell>
                <mxCell id="384" style="edgeStyle=none;html=1;entryX=0;entryY=0.5;entryDx=0;entryDy=0;" parent="428" source="375" target="374" edge="1">
                    <mxGeometry relative="1" as="geometry"/>
                </mxCell>
                <mxCell id="375" value="E" style="whiteSpace=wrap;html=1;" parent="428" vertex="1">
                    <mxGeometry y="240" width="120" height="60" as="geometry"/>
                </mxCell>
                <mxCell id="388" style="edgeStyle=none;html=1;entryX=1;entryY=0.25;entryDx=0;entryDy=0;" parent="428" source="374" target="375" edge="1">
                    <mxGeometry relative="1" as="geometry"/>
                </mxCell>
                <mxCell id="389" style="edgeStyle=none;html=1;exitX=-0.005;exitY=0.662;exitDx=0;exitDy=0;exitPerimeter=0;" parent="428" source="376" edge="1">
                    <mxGeometry relative="1" as="geometry">
                        <mxPoint x="120" y="280" as="targetPoint"/>
                    </mxGeometry>
                </mxCell>
                <mxCell id="390" style="edgeStyle=none;html=1;entryX=1;entryY=0.75;entryDx=0;entryDy=0;" parent="428" source="376" target="373" edge="1">
                    <mxGeometry relative="1" as="geometry"/>
                </mxCell>
                <mxCell id="376" value="F" style="whiteSpace=wrap;html=1;" parent="428" vertex="1">
                    <mxGeometry x="380" y="240" width="120" height="60" as="geometry"/>
                </mxCell>
                <mxCell id="379" style="edgeStyle=none;html=1;entryX=0;entryY=0.5;entryDx=0;entryDy=0;" parent="428" source="371" target="376" edge="1">
                    <mxGeometry relative="1" as="geometry"/>
                </mxCell>
                <mxCell id="382" style="edgeStyle=none;html=1;entryX=0;entryY=0.5;entryDx=0;entryDy=0;" parent="428" source="373" target="376" edge="1">
                    <mxGeometry relative="1" as="geometry"/>
                </mxCell>
                <mxCell id="385" style="edgeStyle=none;html=1;entryX=0;entryY=0.5;entryDx=0;entryDy=0;" parent="428" source="375" target="376" edge="1">
                    <mxGeometry relative="1" as="geometry"/>
                </mxCell>
                <mxCell id="429" value="" style="group" parent="1" vertex="1" connectable="0">
                    <mxGeometry x="-710" y="1360" width="600" height="300" as="geometry"/>
                </mxCell>
                <mxCell id="396" value="A" style="whiteSpace=wrap;html=1;" parent="429" vertex="1">
                    <mxGeometry width="120" height="60" as="geometry"/>
                </mxCell>
                <mxCell id="399" value="B" style="whiteSpace=wrap;html=1;" parent="429" vertex="1">
                    <mxGeometry x="480" width="120" height="60" as="geometry"/>
                </mxCell>
                <mxCell id="417" style="edgeStyle=none;html=1;" parent="429" source="403" edge="1">
                    <mxGeometry relative="1" as="geometry">
                        <mxPoint x="230" y="160" as="targetPoint"/>
                    </mxGeometry>
                </mxCell>
                <mxCell id="403" value="C" style="whiteSpace=wrap;html=1;" parent="429" vertex="1">
                    <mxGeometry y="130" width="120" height="60" as="geometry"/>
                </mxCell>
                <mxCell id="407" value="D" style="whiteSpace=wrap;html=1;" parent="429" vertex="1">
                    <mxGeometry x="480" y="120" width="120" height="60" as="geometry"/>
                </mxCell>
                <mxCell id="411" value="E" style="whiteSpace=wrap;html=1;" parent="429" vertex="1">
                    <mxGeometry y="240" width="120" height="60" as="geometry"/>
                </mxCell>
                <mxCell id="414" value="F" style="whiteSpace=wrap;html=1;" parent="429" vertex="1">
                    <mxGeometry x="480" y="240" width="120" height="60" as="geometry"/>
                </mxCell>
                <mxCell id="419" style="edgeStyle=none;html=1;entryX=0;entryY=1;entryDx=0;entryDy=0;" parent="429" source="415" target="399" edge="1">
                    <mxGeometry relative="1" as="geometry"/>
                </mxCell>
                <mxCell id="420" style="edgeStyle=none;html=1;entryX=-0.004;entryY=0.617;entryDx=0;entryDy=0;entryPerimeter=0;" parent="429" source="415" target="407" edge="1">
                    <mxGeometry relative="1" as="geometry"/>
                </mxCell>
                <mxCell id="421" style="edgeStyle=none;html=1;entryX=-0.01;entryY=0.111;entryDx=0;entryDy=0;exitX=1;exitY=1;exitDx=0;exitDy=0;entryPerimeter=0;" parent="429" source="415" target="414" edge="1">
                    <mxGeometry relative="1" as="geometry"/>
                </mxCell>
                <mxCell id="425" style="edgeStyle=none;html=1;entryX=1;entryY=0.5;entryDx=0;entryDy=0;" parent="429" source="415" target="403" edge="1">
                    <mxGeometry relative="1" as="geometry"/>
                </mxCell>
                <mxCell id="426" style="edgeStyle=none;html=1;entryX=1;entryY=1;entryDx=0;entryDy=0;" parent="429" target="396" edge="1">
                    <mxGeometry relative="1" as="geometry">
                        <mxPoint x="230" y="160" as="sourcePoint"/>
                    </mxGeometry>
                </mxCell>
                <mxCell id="427" style="edgeStyle=none;html=1;entryX=1;entryY=0;entryDx=0;entryDy=0;" parent="429" target="411" edge="1">
                    <mxGeometry relative="1" as="geometry">
                        <mxPoint x="230" y="160" as="sourcePoint"/>
                    </mxGeometry>
                </mxCell>
                <mxCell id="415" value="Mediator" style="whiteSpace=wrap;html=1;" parent="429" vertex="1">
                    <mxGeometry x="230" y="130" width="120" height="60" as="geometry"/>
                </mxCell>
                <mxCell id="416" style="edgeStyle=none;html=1;entryX=0;entryY=0.5;entryDx=0;entryDy=0;exitX=1;exitY=1;exitDx=0;exitDy=0;" parent="429" source="396" target="415" edge="1">
                    <mxGeometry relative="1" as="geometry"/>
                </mxCell>
                <mxCell id="422" style="edgeStyle=none;html=1;entryX=1;entryY=0;entryDx=0;entryDy=0;" parent="429" source="399" target="415" edge="1">
                    <mxGeometry relative="1" as="geometry"/>
                </mxCell>
                <mxCell id="423" style="edgeStyle=none;html=1;entryX=1;entryY=0.5;entryDx=0;entryDy=0;exitX=-0.012;exitY=0.614;exitDx=0;exitDy=0;exitPerimeter=0;" parent="429" source="407" target="415" edge="1">
                    <mxGeometry relative="1" as="geometry"/>
                </mxCell>
                <mxCell id="418" style="edgeStyle=none;html=1;entryX=0;entryY=0.5;entryDx=0;entryDy=0;exitX=1;exitY=0;exitDx=0;exitDy=0;" parent="429" source="411" target="415" edge="1">
                    <mxGeometry relative="1" as="geometry">
                        <mxPoint x="130" y="240" as="sourcePoint"/>
                    </mxGeometry>
                </mxCell>
                <mxCell id="424" style="edgeStyle=none;html=1;entryX=1;entryY=1;entryDx=0;entryDy=0;" parent="429" source="414" target="415" edge="1">
                    <mxGeometry relative="1" as="geometry"/>
                </mxCell>
                <mxCell id="431" value="A" style="whiteSpace=wrap;html=1;container=0;" parent="1" vertex="1">
                    <mxGeometry x="-1010" y="1850" width="120" height="60" as="geometry"/>
                </mxCell>
                <mxCell id="432" value="B" style="whiteSpace=wrap;html=1;container=0;" parent="1" vertex="1">
                    <mxGeometry x="-530" y="1850" width="120" height="60" as="geometry"/>
                </mxCell>
                <mxCell id="433" style="edgeStyle=none;html=1;" parent="1" source="434" edge="1">
                    <mxGeometry relative="1" as="geometry">
                        <mxPoint x="-780" y="2010" as="targetPoint"/>
                    </mxGeometry>
                </mxCell>
                <mxCell id="434" value="C" style="whiteSpace=wrap;html=1;container=0;" parent="1" vertex="1">
                    <mxGeometry x="-1010" y="1980" width="120" height="60" as="geometry"/>
                </mxCell>
                <mxCell id="435" value="D" style="whiteSpace=wrap;html=1;container=0;" parent="1" vertex="1">
                    <mxGeometry x="-530" y="1970" width="120" height="60" as="geometry"/>
                </mxCell>
                <mxCell id="436" value="E" style="whiteSpace=wrap;html=1;container=0;" parent="1" vertex="1">
                    <mxGeometry x="-1010" y="2090" width="120" height="60" as="geometry"/>
                </mxCell>
                <mxCell id="437" value="F" style="whiteSpace=wrap;html=1;container=0;" parent="1" vertex="1">
                    <mxGeometry x="-530" y="2090" width="120" height="60" as="geometry"/>
                </mxCell>
                <mxCell id="438" style="edgeStyle=none;html=1;entryX=0;entryY=1;entryDx=0;entryDy=0;" parent="1" source="444" target="432" edge="1">
                    <mxGeometry relative="1" as="geometry"/>
                </mxCell>
                <mxCell id="439" style="edgeStyle=none;html=1;entryX=-0.004;entryY=0.617;entryDx=0;entryDy=0;entryPerimeter=0;" parent="1" source="444" target="435" edge="1">
                    <mxGeometry relative="1" as="geometry"/>
                </mxCell>
                <mxCell id="440" style="edgeStyle=none;html=1;entryX=-0.01;entryY=0.111;entryDx=0;entryDy=0;exitX=1;exitY=1;exitDx=0;exitDy=0;entryPerimeter=0;" parent="1" source="444" target="437" edge="1">
                    <mxGeometry relative="1" as="geometry"/>
                </mxCell>
                <mxCell id="441" style="edgeStyle=none;html=1;entryX=1;entryY=0.5;entryDx=0;entryDy=0;" parent="1" source="444" target="434" edge="1">
                    <mxGeometry relative="1" as="geometry"/>
                </mxCell>
                <mxCell id="442" style="edgeStyle=none;html=1;entryX=1;entryY=1;entryDx=0;entryDy=0;" parent="1" target="431" edge="1">
                    <mxGeometry relative="1" as="geometry">
                        <mxPoint x="-780" y="2010" as="sourcePoint"/>
                    </mxGeometry>
                </mxCell>
                <mxCell id="443" style="edgeStyle=none;html=1;entryX=1;entryY=0;entryDx=0;entryDy=0;" parent="1" target="436" edge="1">
                    <mxGeometry relative="1" as="geometry">
                        <mxPoint x="-780" y="2010" as="sourcePoint"/>
                    </mxGeometry>
                </mxCell>
                <mxCell id="444" value="Mediator" style="whiteSpace=wrap;html=1;container=0;" parent="1" vertex="1">
                    <mxGeometry x="-780" y="1980" width="120" height="60" as="geometry"/>
                </mxCell>
                <mxCell id="445" style="edgeStyle=none;html=1;entryX=0;entryY=0.5;entryDx=0;entryDy=0;exitX=1;exitY=1;exitDx=0;exitDy=0;" parent="1" source="431" target="444" edge="1">
                    <mxGeometry relative="1" as="geometry"/>
                </mxCell>
                <mxCell id="446" style="edgeStyle=none;html=1;entryX=1;entryY=0;entryDx=0;entryDy=0;" parent="1" source="432" target="444" edge="1">
                    <mxGeometry relative="1" as="geometry"/>
                </mxCell>
                <mxCell id="447" style="edgeStyle=none;html=1;entryX=1;entryY=0.5;entryDx=0;entryDy=0;exitX=-0.012;exitY=0.614;exitDx=0;exitDy=0;exitPerimeter=0;" parent="1" source="435" target="444" edge="1">
                    <mxGeometry relative="1" as="geometry"/>
                </mxCell>
                <mxCell id="448" style="edgeStyle=none;html=1;entryX=0;entryY=0.5;entryDx=0;entryDy=0;exitX=1;exitY=0;exitDx=0;exitDy=0;" parent="1" source="436" target="444" edge="1">
                    <mxGeometry relative="1" as="geometry">
                        <mxPoint x="-880" y="2090" as="sourcePoint"/>
                    </mxGeometry>
                </mxCell>
                <mxCell id="449" style="edgeStyle=none;html=1;entryX=1;entryY=1;entryDx=0;entryDy=0;" parent="1" source="437" target="444" edge="1">
                    <mxGeometry relative="1" as="geometry"/>
                </mxCell>
                <mxCell id="450" value="" style="aspect=fixed;perimeter=ellipsePerimeter;html=1;align=center;shadow=0;dashed=0;spacingTop=3;image;image=img/lib/active_directory/interface.svg;rotation=-90;" parent="1" vertex="1">
                    <mxGeometry x="-971.02" y="1821.03" width="35" height="16.45" as="geometry"/>
                </mxCell>
                <mxCell id="451" value="" style="aspect=fixed;perimeter=ellipsePerimeter;html=1;align=center;shadow=0;dashed=0;spacingTop=3;image;image=img/lib/active_directory/interface.svg;rotation=-90;" parent="1" vertex="1">
                    <mxGeometry x="-971.02" y="1951.03" width="35" height="16.45" as="geometry"/>
                </mxCell>
                <mxCell id="452" value="" style="aspect=fixed;perimeter=ellipsePerimeter;html=1;align=center;shadow=0;dashed=0;spacingTop=3;image;image=img/lib/active_directory/interface.svg;rotation=-90;" parent="1" vertex="1">
                    <mxGeometry x="-487.35" y="1817.35" width="40" height="18.8" as="geometry"/>
                </mxCell>
                <mxCell id="453" value="" style="aspect=fixed;perimeter=ellipsePerimeter;html=1;align=center;shadow=0;dashed=0;spacingTop=3;image;image=img/lib/active_directory/interface.svg;rotation=-90;" parent="1" vertex="1">
                    <mxGeometry x="-491.02" y="1941.03" width="35" height="16.45" as="geometry"/>
                </mxCell>
                <mxCell id="454" value="" style="aspect=fixed;perimeter=ellipsePerimeter;html=1;align=center;shadow=0;dashed=0;spacingTop=3;image;image=img/lib/active_directory/interface.svg;rotation=-90;" parent="1" vertex="1">
                    <mxGeometry x="-491.91" y="2058.55" width="38.37" height="18.03" as="geometry"/>
                </mxCell>
                <mxCell id="455" value="" style="aspect=fixed;perimeter=ellipsePerimeter;html=1;align=center;shadow=0;dashed=0;spacingTop=3;image;image=img/lib/active_directory/interface.svg;rotation=-90;" parent="1" vertex="1">
                    <mxGeometry x="-967.5" y="2060" width="35" height="16.45" as="geometry"/>
                </mxCell>
                <mxCell id="456" value="" style="aspect=fixed;perimeter=ellipsePerimeter;html=1;align=center;shadow=0;dashed=0;spacingTop=3;image;image=img/lib/active_directory/interface.svg;rotation=-90;" parent="1" vertex="1">
                    <mxGeometry x="-754.28" y="1914.28" width="85" height="39.95" as="geometry"/>
                </mxCell>
                <mxCell id="457" value="Collegue" style="text;html=1;align=center;verticalAlign=middle;resizable=0;points=[];autosize=1;strokeColor=none;fillColor=none;" parent="1" vertex="1">
                    <mxGeometry x="-985" y="1770" width="70" height="30" as="geometry"/>
                </mxCell>
                <mxCell id="458" value="Collegue" style="text;html=1;align=center;verticalAlign=middle;resizable=0;points=[];autosize=1;strokeColor=none;fillColor=none;" parent="1" vertex="1">
                    <mxGeometry x="-495" y="1770" width="70" height="30" as="geometry"/>
                </mxCell>
                <mxCell id="459" value="IMediator" style="text;html=1;align=center;verticalAlign=middle;resizable=0;points=[];autosize=1;strokeColor=none;fillColor=none;" parent="1" vertex="1">
                    <mxGeometry x="-746.78" y="1850" width="70" height="30" as="geometry"/>
                </mxCell>
                <mxCell id="460" value="" style="group" parent="1" vertex="1" connectable="0">
                    <mxGeometry x="-1060" y="150" width="1030" height="300" as="geometry"/>
                </mxCell>
                <mxCell id="339" value="&lt;&lt;interface&gt;&gt;&#10;Mediator" style="swimlane;fontStyle=1;align=center;verticalAlign=top;childLayout=stackLayout;horizontal=1;startSize=40;horizontalStack=0;resizeParent=1;resizeParentMax=0;resizeLast=0;collapsible=1;marginBottom=0;" parent="460" vertex="1">
                    <mxGeometry x="270" width="240" height="73.55263157894737" as="geometry"/>
                </mxCell>
                <mxCell id="341" value="" style="line;strokeWidth=1;fillColor=none;align=left;verticalAlign=middle;spacingTop=-1;spacingLeft=3;spacingRight=3;rotatable=0;labelPosition=right;points=[];portConstraint=eastwest;strokeColor=inherit;" parent="339" vertex="1">
                    <mxGeometry y="40" width="240" height="7.894736842105263" as="geometry"/>
                </mxCell>
                <mxCell id="342" value="+Nofity(sender:Colleague,event:string):void" style="text;strokeColor=none;fillColor=none;align=left;verticalAlign=top;spacingLeft=4;spacingRight=4;overflow=hidden;rotatable=0;points=[[0,0.5],[1,0.5]];portConstraint=eastwest;" parent="339" vertex="1">
                    <mxGeometry y="47.89473684210526" width="240" height="25.657894736842103" as="geometry"/>
                </mxCell>
                <mxCell id="343" value="&lt;&lt;abstract&gt;&gt;&#10;Colleague" style="swimlane;fontStyle=1;align=center;verticalAlign=top;childLayout=stackLayout;horizontal=1;startSize=39;horizontalStack=0;resizeParent=1;resizeParentMax=0;resizeLast=0;collapsible=1;marginBottom=0;" parent="460" vertex="1">
                    <mxGeometry x="710" width="240" height="98.21052631578948" as="geometry"/>
                </mxCell>
                <mxCell id="344" value="-mediator:Mediator" style="text;strokeColor=none;fillColor=none;align=left;verticalAlign=top;spacingLeft=4;spacingRight=4;overflow=hidden;rotatable=0;points=[[0,0.5],[1,0.5]];portConstraint=eastwest;" parent="343" vertex="1">
                    <mxGeometry y="39" width="240" height="25.657894736842103" as="geometry"/>
                </mxCell>
                <mxCell id="345" value="" style="line;strokeWidth=1;fillColor=none;align=left;verticalAlign=middle;spacingTop=-1;spacingLeft=3;spacingRight=3;rotatable=0;labelPosition=right;points=[];portConstraint=eastwest;strokeColor=inherit;" parent="343" vertex="1">
                    <mxGeometry y="64.65789473684211" width="240" height="7.894736842105263" as="geometry"/>
                </mxCell>
                <mxCell id="346" value="+SetMediator(mediator:Mediator):void" style="text;strokeColor=none;fillColor=none;align=left;verticalAlign=top;spacingLeft=4;spacingRight=4;overflow=hidden;rotatable=0;points=[[0,0.5],[1,0.5]];portConstraint=eastwest;" parent="343" vertex="1">
                    <mxGeometry y="72.55263157894737" width="240" height="25.657894736842103" as="geometry"/>
                </mxCell>
                <mxCell id="351" value="ConcreteMediator" style="swimlane;fontStyle=1;align=center;verticalAlign=top;childLayout=stackLayout;horizontal=1;startSize=26;horizontalStack=0;resizeParent=1;resizeParentMax=0;resizeLast=0;collapsible=1;marginBottom=0;" parent="460" vertex="1">
                    <mxGeometry x="265" y="197.36842105263156" width="250" height="102.9736842105263" as="geometry"/>
                </mxCell>
                <mxCell id="352" value="-colleague1:Collegue1&#10;-colleague2:Collegue2" style="text;strokeColor=none;fillColor=none;align=left;verticalAlign=top;spacingLeft=4;spacingRight=4;overflow=hidden;rotatable=0;points=[[0,0.5],[1,0.5]];portConstraint=eastwest;" parent="351" vertex="1">
                    <mxGeometry y="26" width="250" height="43.42105263157894" as="geometry"/>
                </mxCell>
                <mxCell id="353" value="" style="line;strokeWidth=1;fillColor=none;align=left;verticalAlign=middle;spacingTop=-1;spacingLeft=3;spacingRight=3;rotatable=0;labelPosition=right;points=[];portConstraint=eastwest;strokeColor=inherit;" parent="351" vertex="1">
                    <mxGeometry y="69.42105263157893" width="250" height="7.894736842105262" as="geometry"/>
                </mxCell>
                <mxCell id="354" value="+Nofity(sender:Colleague,event:string):void" style="text;strokeColor=none;fillColor=none;align=left;verticalAlign=top;spacingLeft=4;spacingRight=4;overflow=hidden;rotatable=0;points=[[0,0.5],[1,0.5]];portConstraint=eastwest;" parent="351" vertex="1">
                    <mxGeometry y="77.31578947368419" width="250" height="25.657894736842103" as="geometry"/>
                </mxCell>
                <mxCell id="355" value="Client" style="swimlane;fontStyle=1;align=center;verticalAlign=top;childLayout=stackLayout;horizontal=1;startSize=26;horizontalStack=0;resizeParent=1;resizeParentMax=0;resizeLast=0;collapsible=1;marginBottom=0;" parent="460" vertex="1">
                    <mxGeometry y="9.868421052631579" width="90" height="33.89473684210526" as="geometry"/>
                </mxCell>
                <mxCell id="357" value="" style="line;strokeWidth=1;fillColor=none;align=left;verticalAlign=middle;spacingTop=-1;spacingLeft=3;spacingRight=3;rotatable=0;labelPosition=right;points=[];portConstraint=eastwest;strokeColor=inherit;" parent="355" vertex="1">
                    <mxGeometry y="26" width="90" height="7.894736842105264" as="geometry"/>
                </mxCell>
                <mxCell id="359" value="Colleague2" style="swimlane;fontStyle=1;align=center;verticalAlign=top;childLayout=stackLayout;horizontal=1;startSize=26;horizontalStack=0;resizeParent=1;resizeParentMax=0;resizeLast=0;collapsible=1;marginBottom=0;" parent="460" vertex="1">
                    <mxGeometry x="870" y="197.36842105263156" width="160" height="59.55263157894736" as="geometry"/>
                </mxCell>
                <mxCell id="360" value="" style="line;strokeWidth=1;fillColor=none;align=left;verticalAlign=middle;spacingTop=-1;spacingLeft=3;spacingRight=3;rotatable=0;labelPosition=right;points=[];portConstraint=eastwest;strokeColor=inherit;" parent="359" vertex="1">
                    <mxGeometry y="26" width="160" height="7.894736842105263" as="geometry"/>
                </mxCell>
                <mxCell id="361" value="+Operation2():void" style="text;strokeColor=none;fillColor=none;align=left;verticalAlign=top;spacingLeft=4;spacingRight=4;overflow=hidden;rotatable=0;points=[[0,0.5],[1,0.5]];portConstraint=eastwest;" parent="359" vertex="1">
                    <mxGeometry y="33.89473684210526" width="160" height="25.657894736842103" as="geometry"/>
                </mxCell>
                <mxCell id="362" value="" style="endArrow=block;dashed=1;endFill=0;endSize=12;html=1;exitX=0.5;exitY=0;exitDx=0;exitDy=0;entryX=0.504;entryY=1.059;entryDx=0;entryDy=0;entryPerimeter=0;" parent="460" source="351" target="342" edge="1">
                    <mxGeometry width="160" relative="1" as="geometry">
                        <mxPoint x="440" y="148.02631578947367" as="sourcePoint"/>
                        <mxPoint x="600" y="148.02631578947367" as="targetPoint"/>
                    </mxGeometry>
                </mxCell>
                <mxCell id="363" value="&amp;lt;&amp;lt;extend&amp;gt;&amp;gt;" style="html=1;verticalAlign=bottom;labelBackgroundColor=none;endArrow=open;endFill=0;dashed=1;exitX=0.566;exitY=-0.071;exitDx=0;exitDy=0;exitPerimeter=0;" parent="460" source="347" edge="1">
                    <mxGeometry width="160" relative="1" as="geometry">
                        <mxPoint x="440" y="148.02631578947367" as="sourcePoint"/>
                        <mxPoint x="760" y="98.68421052631578" as="targetPoint"/>
                    </mxGeometry>
                </mxCell>
                <mxCell id="364" value="&amp;lt;&amp;lt;extend&amp;gt;&amp;gt;" style="html=1;verticalAlign=bottom;labelBackgroundColor=none;endArrow=open;endFill=0;dashed=1;exitX=0.566;exitY=-0.071;exitDx=0;exitDy=0;exitPerimeter=0;" parent="460" edge="1">
                    <mxGeometry width="160" relative="1" as="geometry">
                        <mxPoint x="910.56" y="197.36842105263156" as="sourcePoint"/>
                        <mxPoint x="910" y="102.88815789473684" as="targetPoint"/>
                    </mxGeometry>
                </mxCell>
                <mxCell id="365" value="" style="endArrow=diamondThin;endFill=0;endSize=24;html=1;exitX=-0.028;exitY=0.144;exitDx=0;exitDy=0;exitPerimeter=0;" parent="460" source="347" edge="1">
                    <mxGeometry width="160" relative="1" as="geometry">
                        <mxPoint x="440" y="148.02631578947367" as="sourcePoint"/>
                        <mxPoint x="520" y="207.23684210526315" as="targetPoint"/>
                    </mxGeometry>
                </mxCell>
                <mxCell id="366" value="" style="endArrow=diamondThin;endFill=0;endSize=24;html=1;exitX=-0.008;exitY=0.398;exitDx=0;exitDy=0;exitPerimeter=0;entryX=0.997;entryY=-0.031;entryDx=0;entryDy=0;entryPerimeter=0;" parent="460" source="359" target="352" edge="1">
                    <mxGeometry width="160" relative="1" as="geometry">
                        <mxPoint x="665" y="236.8421052631579" as="sourcePoint"/>
                        <mxPoint x="515" y="236.8421052631579" as="targetPoint"/>
                    </mxGeometry>
                </mxCell>
                <mxCell id="347" value="Colleague1" style="swimlane;fontStyle=1;align=center;verticalAlign=top;childLayout=stackLayout;horizontal=1;startSize=26;horizontalStack=0;resizeParent=1;resizeParentMax=0;resizeLast=0;collapsible=1;marginBottom=0;" parent="460" vertex="1">
                    <mxGeometry x="670" y="197.36842105263156" width="160" height="59.55263157894736" as="geometry"/>
                </mxCell>
                <mxCell id="349" value="" style="line;strokeWidth=1;fillColor=none;align=left;verticalAlign=middle;spacingTop=-1;spacingLeft=3;spacingRight=3;rotatable=0;labelPosition=right;points=[];portConstraint=eastwest;strokeColor=inherit;" parent="347" vertex="1">
                    <mxGeometry y="26" width="160" height="7.894736842105263" as="geometry"/>
                </mxCell>
                <mxCell id="350" value="+Operation1():void" style="text;strokeColor=none;fillColor=none;align=left;verticalAlign=top;spacingLeft=4;spacingRight=4;overflow=hidden;rotatable=0;points=[[0,0.5],[1,0.5]];portConstraint=eastwest;" parent="347" vertex="1">
                    <mxGeometry y="33.89473684210526" width="160" height="25.657894736842103" as="geometry"/>
                </mxCell>
                <mxCell id="367" value="Use" style="endArrow=open;endSize=12;dashed=1;html=1;entryX=0;entryY=0.25;entryDx=0;entryDy=0;exitX=1;exitY=0.25;exitDx=0;exitDy=0;" parent="460" source="355" target="339" edge="1">
                    <mxGeometry width="160" relative="1" as="geometry">
                        <mxPoint x="90" y="16.282894736842106" as="sourcePoint"/>
                        <mxPoint x="250" y="16.282894736842106" as="targetPoint"/>
                    </mxGeometry>
                </mxCell>
            </root>
        </mxGraphModel>
    </diagram>
</mxfile>